<?xml version="1.0" standalone="no"?>
<!DOCTYPE svg PUBLIC "-//W3C//DTD SVG 20010904//EN"
 "http://www.w3.org/TR/2001/REC-SVG-20010904/DTD/svg10.dtd">
<svg version="1.0" xmlns="http://www.w3.org/2000/svg"
 width="480.000000pt" height="480.000000pt" viewBox="0 0 480.000000 480.000000"
 preserveAspectRatio="xMidYMid meet">
<metadata>
Created by potrace 1.14, written by Peter Selinger 2001-2017
</metadata>
<g transform="translate(0.000000,480.000000) scale(0.100000,-0.100000)"
fill="#000000" stroke="none">
<path d="M0 2400 l0 -2400 2400 0 2400 0 0 2400 0 2400 -2400 0 -2400 0 0
-2400z m1327 1743 c89 -56 252 -131 339 -154 95 -26 271 -31 354 -10 76 18
226 92 288 140 28 23 55 41 60 41 5 0 26 -15 48 -33 252 -213 524 -243 826
-91 40 20 107 58 151 85 43 27 83 49 87 49 5 0 47 -24 92 -53 211 -135 303
-170 453 -170 114 -1 188 16 309 68 44 19 81 33 83 32 1 -2 7 -46 13 -98 l10
-94 -28 -23 c-47 -39 -184 -101 -272 -123 -197 -50 -393 1 -597 154 l-52 39
-61 -42 c-80 -54 -209 -115 -290 -137 -89 -25 -291 -25 -378 0 -109 30 -241
95 -365 180 -14 10 -25 8 -60 -12 -247 -142 -376 -185 -547 -185 -168 0 -304
45 -478 157 l-70 45 -93 -69 c-103 -76 -229 -143 -299 -158 -132 -30 -284 -1
-419 79 -113 67 -108 61 -116 182 l-7 108 76 -36 c270 -124 522 -91 796 105
47 33 86 61 87 61 2 0 28 -16 60 -37z m19 -649 c290 -181 578 -215 821 -98 40
19 102 57 138 84 l65 49 42 -36 c104 -88 225 -151 340 -178 185 -43 402 16
658 180 l70 45 102 -67 c206 -133 311 -168 483 -160 113 5 189 25 297 78 26
12 50 20 53 17 4 -3 10 -48 15 -100 11 -109 15 -101 -110 -167 -270 -141 -530
-112 -777 86 -23 18 -45 33 -49 33 -4 0 -43 -23 -86 -51 -162 -104 -290 -143
-463 -142 -100 0 -135 5 -208 27 -103 31 -197 76 -291 140 l-67 46 -67 -39
c-222 -129 -352 -172 -517 -173 -168 -1 -306 44 -482 157 l-72 46 -88 -66
c-291 -215 -499 -230 -767 -54 l-64 42 -7 104 c-4 57 -5 107 -2 109 3 3 31 -8
64 -24 110 -56 196 -77 318 -77 87 0 126 5 185 23 94 29 226 98 310 162 36 27
69 49 74 49 4 1 41 -20 82 -45z m1831 -982 c266 -58 517 -180 763 -371 109
-84 317 -287 432 -419 l89 -103 -27 -32 c-430 -520 -887 -816 -1352 -878 -128
-17 -411 -6 -536 21 -332 71 -742 269 -1129 546 -66 47 -123 82 -126 77 -4 -4
-37 -53 -74 -108 -212 -320 -475 -499 -791 -536 -52 -6 -100 -9 -109 -7 -11 2
1 30 49 113 112 191 186 392 220 592 23 131 15 392 -14 519 -41 173 -119 361
-222 529 -22 36 -40 68 -40 72 0 3 42 3 92 0 155 -9 314 -65 458 -159 102 -66
263 -235 354 -371 44 -65 84 -116 91 -114 6 3 54 36 106 73 442 319 890 522
1264 573 113 16 395 6 502 -17z"/>
<path d="M3272 1997 c-45 -14 -118 -81 -144 -131 -16 -30 -22 -59 -22 -106 0
-144 105 -250 249 -250 97 0 173 45 219 130 34 63 39 151 12 215 -50 117 -191
182 -314 142z"/>
</g>
</svg>
